
<svg
  width="100%"
  viewBox="0 0 375 319"
  version="1.1"
  xmlns="http://www.w3.org/2000/svg"
  xmlns:xlink="http://www.w3.org/1999/xlink"
>
  <g
    id="Page-1"
    stroke="none"
    stroke-width="1"
    fill="none"
    fill-rule="evenodd"
  >
    <g
      id="iPhone-8"
      transform="translate(0.000000, -162.000000)"
      style="isolation: isolate"
    >
      <g
        id="Nib"
        transform="translate(233.352803, 333.056795) rotate(7.000000) translate(-233.352803, -333.056795) translate(171.852803, 263.556795)"
      >
        <path
          d="M0,139 C9.91361914,126.65871 18.3196833,118.980808 25.2181925,115.966295 C35.5659564,111.444524 59.0402047,107.649169 68.1889287,104.836808 C77.3376527,102.024447 87.4711236,95.6266539 92.1167776,89.3767308 C95.2138802,85.2101153 97.449517,80.7089547 98.8236879,75.8732488 C88.0125676,75.5124201 77.2405121,76.2936179 66.5075213,78.216842 C50.408035,81.1016783 30.0418681,88.9918678 18.549263,102.723784 C12.808791,109.582776 12.808791,114.273126 6.74814285,126.376442 C5.63212115,128.605175 3.3827402,132.813028 0,139 Z"
          id="Path-3"
          fill="#BD4FF3"
        />
        <path
          d="M14.0310757,109.825668 C22.5999659,100.456644 31.8079729,93.514615 41.6550968,88.9995809 C56.4257826,82.2270299 84.6074707,84.3403876 97.3037354,76.9363017 C105.767912,72.0002445 110.019881,64.3267931 110.059642,53.9159476 C92.0645478,54.9570009 77.8589451,57.363611 67.442834,61.1357779 C51.8186673,66.7940283 36.6897718,75.325406 28.794022,84.5138816 C23.5301889,90.639532 18.6092068,99.076794 14.0310757,109.825668 Z"
          id="Path"
          fill="#EA72FE"
          style="mix-blend-mode: multiply"
        />
        <path
          d="M19,99 C27.0042993,90.1535885 36.1738826,82.4044993 46.50875,75.7527325 C62.34245,65.5617859 93.795383,62.8017379 105.897692,56.8122346 C113.965897,52.8192325 118.014206,44.7237597 118.042618,32.5258163 C102.554148,33.7233759 88.1879633,36.3537657 74.9440646,40.4169854 C55.0782165,46.511815 37.1199523,61.9085373 29.8666097,73.0457623 C25.031048,80.470579 21.4088447,89.1219916 19,99 Z"
          id="Path-2"
          fill="#F26FC7"
          style="mix-blend-mode: multiply"
        />
        <path
          d="M23,87 C28.860273,75.3834311 37.8202107,66.0773323 49.8798132,59.0817037 C67.9692169,48.5882607 95.4575678,47.3981364 104.811158,43.5 C114.164749,39.6018636 121.088388,30.7388991 122.539807,21.3488439 C123.50742,15.0888071 122.949138,7.97252579 120.864963,0 C107.818989,8.19770697 98.896009,13.1219468 94.0960223,14.7727194 C86.8960424,17.2488784 58.9990598,27.4520879 49.8798132,35.4326757 C40.7605665,43.4132635 33.4589536,54.0543253 29.1534126,65.7854308 C26.283052,73.6061678 24.2319144,80.6776909 23,87 Z"
          id="Path-4"
          fill="#FDA6D4"
          style="mix-blend-mode: multiply"
        />
      </g>
      <path
        d="M-21.7071329,455.894545 C-5.15861852,448.761164 8.47727739,441.284522 19.2005548,433.464619 C35.285471,421.734765 49.6005193,410.377326 64.2889233,383.350089 C78.9773273,356.322853 61.7515871,334.609883 51.216542,335.126731 C40.681497,335.643578 22.3779126,344.865655 24.6044084,362.999008 C26.8309042,381.13236 45.3255365,393.307114 59.3246618,401.162067 C73.3237871,409.01702 93.2171918,410.227054 111.275024,406.183512 C123.313579,403.487818 139.76389,395.825034 160.625958,383.19516 C149.461837,395.851821 140.976092,404.093618 135.168722,407.92055 C126.457666,413.660948 108.306773,422.523751 85.8911265,425.276046 C63.4754797,428.028342 45.794942,417.964416 33.9530009,410.882667 C22.1110598,403.800918 -4.9957932,377.070697 1.02553496,353.280648 C7.04686312,329.490599 25.6309218,314.049358 44.8504042,314.049358 C64.0698866,314.049358 81.802757,328.049699 88.0386992,349.012271 C94.2746414,369.974842 81.8403417,398.191613 52.6326049,439.901144 C43.703978,452.651494 -17.7916138,516.259895 -17.7916138,516.259895 C-17.7916138,516.259895 -19.0967868,496.138112 -21.7071329,455.894545 Z"
        id="Path-8"
        fill="#FFC0EA"
        fill-rule="nonzero"
        transform="translate(69.459412, 415.154627) rotate(7.000000) translate(-69.459412, -415.154627) "
      />
      <path
        d="M251.824409,300.043233 C251.824409,299.177999 298.221614,241.886187 391.016024,128.167796 L395.357813,163.52883 L308.383562,275.541866 C298.121284,283.217291 289.657788,288.616038 282.993074,291.738108 C270.181443,297.739689 251.824409,300.731497 251.824409,300.043233 Z"
        id="Path-7"
        fill="#D172FB"
        fill-rule="nonzero"
        transform="translate(323.591111, 214.154063) rotate(7.000000) translate(-323.591111, -214.154063) "
      />
    </g>
  </g>
</svg>
